<svg xmlns="http://www.w3.org/2000/svg" viewBox="0 0 351.69 397.94"><title>logopath2</title><g id="left-top"><path d="M74.67,399.3l.64-324.54,66.55,50S168.17,52,250.3,52C331,52,366,110.56,366,151.14H340s-1.26-72.46-90-72.46c-59.58,0-86.48,61.67-86.48,61.67L399,316.78V101.36" transform="translate(-73.67 -51.02)" fill="none" stroke="#0e62c6" stroke-miterlimit="10" stroke-width="2"/><polyline points="27.34 100.61 27.81 75.7 325.83 297.35" fill="none" stroke="#0e62c6" stroke-miterlimit="10" stroke-width="2"/></g><g id="right-bottom"><polyline points="325.43 296.55 325.43 321.68 26.94 99.79" fill="none" stroke="#9f24e0" stroke-miterlimit="10" stroke-width="2"/><path d="M398.05,101.36h26.31V423.88l-60.75-45.29S335.06,448,249.52,448,136,369.34,136,352.64h26s14.66,69.66,87.48,69.66,91.08-60.65,91.08-60.65L101.7,182.95V398.3h-27" transform="translate(-73.67 -51.02)" fill="none" stroke="#9f24e0" stroke-miterlimit="10" stroke-width="2"/></g></svg>