<svg id="left-top_copy" data-name="left-top copy" xmlns="http://www.w3.org/2000/svg" viewBox="0 0 349.69 395.94"><title>logopath2fill</title><path d="M399,101.36V316.78L163.52,140.35S192.78,78.68,250,78.68c88.73,0,90,72.46,90,72.46h26C366,110.56,331,52,250.3,52c-82.13,0-108.43,72.75-108.43,72.75l-66.55-50L74.67,398.3h27V182.95l238.9,178.71s-18.26,60.65-91.08,60.65S162,352.64,162,352.64H136C136,369.34,164,448,249.52,448s114.1-69.37,114.1-69.37l60.75,45.29V101.36Zm.06,271.34L101,151.12v.51l-.4-.82.41.31.46-24.4,298,221.65Z" transform="translate(-74.67 -52.02)" fill="#f2f4f7"/><polygon points="0 347.28 0 346.28 0 346.28 0 347.28" fill="#383838"/></svg>