<svg xmlns="http://www.w3.org/2000/svg" viewBox="0 0 351.69 397.94"><title>logopath2</title><g id="left-top"><path d="M74.67,399.3l.64-324.54,66.55,50S168.17,52,250.3,52C331,52,366,110.56,366,151.14H340s-1.26-72.46-90-72.46c-59.58,0-86.48,61.67-86.48,61.67L399,316.78V101.36" transform="translate(-73.67 -51.02)" fill="none" stroke="#0e62c6" stroke-miterlimit="10" stroke-width="2" class="rrOVYYIX_0"></path><path fill="none" stroke="#0e62c6" stroke-miterlimit="10" stroke-width="2" d="M27.34,100.61L27.81,75.7L325.83,297.35" class="rrOVYYIX_1"></path></g><g id="right-bottom"><path fill="none" stroke="#9f24e0" stroke-miterlimit="10" stroke-width="2" d="M325.43,296.55L325.43,321.68L26.94,99.79" class="rrOVYYIX_2"></path><path d="M398.05,101.36h26.31V423.88l-60.75-45.29S335.06,448,249.52,448,136,369.34,136,352.64h26s14.66,69.66,87.48,69.66,91.08-60.65,91.08-60.65L101.7,182.95V398.3h-27" transform="translate(-73.67 -51.02)" fill="none" stroke="#9f24e0" stroke-miterlimit="10" stroke-width="2" class="rrOVYYIX_3"></path></g><style>.rrOVYYIX_0{stroke-dasharray:1493 1495;stroke-dashoffset:1494;animation:rrOVYYIX_draw 3000ms ease-in-out 0ms forwards;}.rrOVYYIX_1{stroke-dasharray:397 399;stroke-dashoffset:398;animation:rrOVYYIX_draw 3000ms ease-in-out 0ms forwards;}.rrOVYYIX_2{stroke-dasharray:398 400;stroke-dashoffset:399;animation:rrOVYYIX_draw 3000ms ease-in-out 0ms forwards;}.rrOVYYIX_3{stroke-dasharray:1533 1535;stroke-dashoffset:1534;animation:rrOVYYIX_draw 3000ms ease-in-out 0ms forwards;}@keyframes rrOVYYIX_draw{100%{stroke-dashoffset:0;}}@keyframes rrOVYYIX_fade{0%{stroke-opacity:1;}94.44444444444444%{stroke-opacity:1;}100%{stroke-opacity:0;}}</style></svg>