<svg id="middle" xmlns="http://www.w3.org/2000/svg" viewBox="0 0 750.1 218.36">
    <title>starsky_middle2</title>
    <g opacity="0.49">
        <polyline
                points="0.07 39.15 46.52 34.95 70.69 28.47 98.61 21.32 133.75 18.17 164.36 12.03 204.6 0.1 250.58 5.12 280.28 0.1 300.59 7.66"
                fill="none" stroke="#a0a0b9" stroke-miterlimit="10" stroke-width="0.2"/>
        <polyline
                points="0.07 52.36 42 45.62 63.88 38.47 89.13 30.52 104.06 28.76 129.79 25.58 139.12 23.76 147.44 21.58 183.04 15.54 203.71 13.09 235.93 8.91 240.8 7.29 259.79 5.62 280.94 7.89 301.65 5.74 304.82 6.14 321.99 5.5 340.41 4.62 346.87 3.08 353.05 3.55 363.01 8.35 375.51 11.93"
                fill="none" stroke="#29272b" stroke-miterlimit="10" stroke-width="0.2"/>
        <polyline
                points="0.07 65.56 37.48 56.28 57.06 48.47 79.65 39.71 99.06 37.13 132.49 32.39 144.49 29.34 155.23 26.18 201.72 19.05 228.69 18.4 270.73 16.69 277.01 14.47 301.25 9.64 328.63 12.55 354.96 6.6 359.05 7.15 381.29 7.91 405.17 8.34 413.45 6.05 421.46 5.39 434.03 12.24 450.42 16.19"
                fill="none" stroke="#29272b" stroke-miterlimit="10" stroke-width="0.2"/>
        <polyline
                points="0.07 78.76 32.96 66.95 50.25 58.47 70.17 48.91 94.07 45.5 135.19 39.2 149.87 34.93 163.02 30.77 220.4 22.55 253.68 23.72 305.54 24.46 313.21 21.66 342.71 13.66 376.33 17.2 408.26 7.45 413.28 8.16 440.59 10.33 469.93 12.07 480.03 9.03 489.88 7.22 505.05 16.14 525.33 20.46"
                fill="none" stroke="#29272b" stroke-miterlimit="10" stroke-width="0.2"/>
        <polyline
                points="0.07 91.97 28.44 77.61 43.44 68.47 60.69 58.1 89.08 53.87 137.88 46.02 155.24 40.52 170.81 35.37 239.09 26.06 278.66 29.04 340.35 32.24 349.42 28.84 384.18 17.68 424.03 21.86 461.57 8.31 467.51 9.18 499.88 12.75 534.69 15.8 546.62 12 558.29 9.05 576.08 20.04 600.25 24.73"
                fill="none" stroke="#29272b" stroke-miterlimit="10" stroke-width="0.2"/>
        <polyline
                points="0.07 105.17 23.92 88.28 36.62 78.47 51.21 67.3 84.08 62.24 140.58 52.83 160.61 46.11 178.6 39.96 257.77 29.57 303.65 34.36 375.16 40.02 385.62 36.03 425.64 21.69 471.73 26.52 514.87 9.17 521.75 10.19 559.18 15.16 599.45 19.53 613.2 14.97 626.71 10.88 647.1 23.93 675.16 29"
                fill="none" stroke="#29272b" stroke-miterlimit="10" stroke-width="0.2"/>
        <polyline
                points="0.07 118.37 41.73 76.49 79.09 70.61 143.28 59.64 186.39 44.56 276.45 33.08 328.63 39.67 409.96 47.8 467.11 25.71 519.42 31.18 568.18 10.03 618.48 17.58 664.21 23.26 695.13 12.72 718.12 27.82 750.07 33.27"
                fill="none" stroke="#29272b" stroke-miterlimit="10" stroke-width="0.2"/>
        <polyline
                points="0.07 131.81 39.62 100.33 53.38 85.1 86.99 79.17 144.76 68.26 183.68 54.45 278.56 41.47 330.43 47.2 351.47 49.05 411.25 54.59 468.63 36.72 520.4 39.34 538.02 32.28 569.27 22.31 576.41 23.49 609.63 26.11 619.01 27.05 644.61 29.04 664.36 31.74 689.92 25.32 695.19 24.13 718.46 38.27 734.89 41.59 750.07 44.05"
                fill="none" stroke="#29272b" stroke-miterlimit="10" stroke-width="0.2"/>
        <polyline
                points="0.07 145.25 49.43 112.18 65.04 93.71 94.89 87.74 146.24 76.88 180.96 64.34 280.66 49.86 332.23 54.72 353.14 56.32 412.53 61.39 470.16 47.73 521.37 47.5 539.04 41 570.36 34.59 577.44 35.87 610.24 36.06 619.55 36.51 644.94 37.29 664.51 40.22 690.04 36.12 695.25 35.54 718.8 48.72 734.98 52.52 750.07 54.83"
                fill="none" stroke="#29272b" stroke-miterlimit="10" stroke-width="0.2"/>
        <polyline
                points="0.07 158.69 59.24 124.04 76.69 102.32 102.79 96.3 147.72 85.49 178.25 74.23 282.77 58.24 334.03 62.25 354.8 63.59 413.81 68.18 471.68 58.74 522.35 55.66 540.07 49.73 571.46 46.87 578.47 48.25 610.85 46.01 620.08 45.97 645.27 45.54 664.66 48.69 690.16 46.91 695.32 46.95 719.15 59.16 735.08 63.45 750.07 65.61"
                fill="none" stroke="#29272b" stroke-miterlimit="10" stroke-width="0.2"/>
        <polyline
                points="0.07 172.13 69.05 135.9 88.35 110.93 110.69 104.87 149.2 94.11 175.53 84.12 284.88 66.63 335.83 69.77 356.47 70.86 415.09 74.98 473.21 69.76 523.32 63.82 541.09 58.45 572.55 59.15 579.5 60.63 611.46 55.96 620.62 55.44 645.6 53.79 664.81 57.17 690.27 57.7 695.38 58.36 719.49 69.61 735.17 74.39 750.07 76.39"
                fill="none" stroke="#29272b" stroke-miterlimit="10" stroke-width="0.2"/>
        <polyline
                points="0.07 185.57 78.86 147.76 100.01 119.54 118.6 113.43 150.68 102.73 172.82 94.01 286.98 75.02 337.63 77.3 358.14 78.13 416.37 81.77 474.73 80.77 524.3 71.98 542.12 67.18 573.64 71.43 580.52 73.01 612.07 65.91 621.15 64.9 645.93 62.04 664.96 65.65 690.39 68.5 695.45 69.77 719.84 80.06 735.27 85.32 750.07 87.18"
                fill="none" stroke="#29272b" stroke-miterlimit="10" stroke-width="0.2"/>
        <polyline
                points="0.07 199.01 88.67 159.62 111.66 128.15 170.11 103.89 289.09 83.41 359.8 85.39 476.26 91.78 543.14 75.9 581.55 85.39 612.68 75.86 646.26 70.29 690.5 79.29 735.36 96.25 750.07 97.96"
                fill="none" stroke="#29272b" stroke-miterlimit="10" stroke-width="0.2"/>
        <polyline
                points="20.93 202.22 102.72 165.58 125.08 137.82 184.49 116.85 195.64 115.12 303.42 94.66 371.6 95.63 412.4 99.28 470.67 103.38 484.31 103.28 548.89 86.48 565.81 89.15 586.01 94.48 616.19 88.09 621.78 87.57 648.75 84.64 652.31 85.39 691.8 91.44 701.11 94.23 735.78 104.69 750.07 105.86"
                fill="none" stroke="#29272b" stroke-miterlimit="10" stroke-width="0.2"/>
        <polyline
                points="41.79 205.43 116.76 171.54 138.49 147.49 198.87 129.8 210.08 128.25 317.75 105.92 383.39 105.86 422.76 110.86 479.26 115.75 492.37 114.79 554.63 97.06 570.96 98.07 590.48 103.57 619.71 100.33 625.1 100.25 651.23 99 654.69 99.74 693.1 103.58 702.21 105.57 736.2 113.13 750.07 113.75"
                fill="none" stroke="#29272b" stroke-miterlimit="10" stroke-width="0.2"/>
        <polyline
                points="62.65 208.64 130.81 177.5 151.9 157.16 213.24 142.75 224.51 141.39 332.08 117.18 395.18 116.09 433.13 122.43 487.85 128.12 500.42 126.3 560.38 107.64 576.11 106.99 594.94 112.66 623.23 112.57 628.41 112.93 653.72 113.36 657.07 114.1 694.4 115.73 703.31 116.92 736.62 121.58 750.07 121.64"
                fill="none" stroke="#29272b" stroke-miterlimit="10" stroke-width="0.2"/>
        <polyline
                points="83.51 211.85 144.85 183.46 165.32 166.83 227.62 155.7 238.95 154.52 346.41 128.44 406.98 126.32 443.5 134.01 496.45 140.5 508.48 137.81 566.12 118.23 581.25 115.92 599.41 121.75 626.75 124.8 631.73 125.6 656.2 127.72 659.45 128.45 695.7 127.88 704.42 128.27 737.04 130.02 750.07 129.54"
                fill="none" stroke="#29272b" stroke-miterlimit="10" stroke-width="0.2"/>
        <polyline
                points="104.37 215.06 158.9 189.42 178.73 176.5 242 168.65 253.39 167.66 360.74 139.7 418.77 136.55 453.86 145.58 505.04 152.87 516.53 149.31 571.87 128.81 586.4 124.84 603.87 130.84 630.26 137.04 635.05 138.28 658.69 142.07 661.83 142.8 696.99 140.03 705.52 139.61 737.46 138.47 750.07 137.44"
                fill="none" stroke="#29272b" stroke-miterlimit="10" stroke-width="0.2"/>
        <polyline
                points="125.23 218.26 192.14 186.17 267.83 180.79 375.07 150.96 430.56 146.78 464.23 157.16 513.63 165.25 591.55 133.76 638.36 150.96 664.21 157.16 706.62 150.96 750.07 145.33"
                fill="none" stroke="#29272b" stroke-miterlimit="10" stroke-width="0.2"/>
        <polyline
                points="169.22 218.26 230.76 189.65 286.85 184.45 299.81 183.62 362.63 167.75 398.17 159.67 450.16 156.1 472 162.03 481.84 164.63 528.16 170.96 560.42 159.15 601.75 144.42 618.11 149.73 645.69 159.93 658.5 163.21 669.88 165.63 704.1 161.18 709.6 160.67 750.07 157.49"
                fill="none" stroke="#29272b" stroke-miterlimit="10" stroke-width="0.2"/>
        <polyline
                points="213.2 218.26 269.38 193.13 320.03 187.11 331.79 186.44 389.02 173.75 421.26 168.38 469.75 165.43 490.23 170.12 499.44 172.09 542.68 176.68 573.04 166.87 611.95 155.08 627.33 159.33 653.02 168.91 664.9 172.17 675.54 174.1 707.48 170.55 712.57 170.38 750.07 169.64"
                fill="none" stroke="#29272b" stroke-miterlimit="10" stroke-width="0.2"/>
        <polyline
                points="257.18 218.26 308 196.61 353.2 189.77 363.77 189.26 415.42 179.75 444.35 177.09 489.34 174.75 508.45 178.22 517.05 179.56 557.21 182.39 585.66 174.59 622.16 165.75 636.55 168.93 660.35 177.88 671.3 181.13 681.2 182.58 710.86 179.91 715.54 180.09 750.07 181.8"
                fill="none" stroke="#29272b" stroke-miterlimit="10" stroke-width="0.2"/>
        <polyline
                points="301.16 218.26 346.63 200.09 386.38 192.42 395.75 192.09 441.81 185.74 467.45 185.8 508.94 184.07 526.68 186.31 534.66 187.03 571.73 188.1 598.28 182.3 632.36 176.41 645.77 178.53 667.68 186.86 677.7 190.09 686.86 191.05 714.23 189.27 718.52 189.8 750.07 193.95"
                fill="none" stroke="#29272b" stroke-miterlimit="10" stroke-width="0.2"/>
        <polyline
                points="345.14 218.26 385.25 203.57 419.56 195.08 427.73 194.91 468.2 191.74 490.54 194.51 528.53 193.4 544.91 194.41 552.26 194.5 586.26 193.82 610.9 190.02 642.56 187.07 654.99 188.13 675.01 195.84 684.1 199.04 692.53 199.53 717.61 198.64 721.5 199.52 750.07 206.11"
                fill="none" stroke="#29272b" stroke-miterlimit="10" stroke-width="0.2"/>
        <polyline
                points="389.13 218.26 452.74 197.74 494.59 197.74 513.63 203.22 563.14 202.5 623.52 197.74 664.21 197.74 690.5 208 720.99 208 750.07 218.26"
                fill="none" stroke="#29272b" stroke-miterlimit="10" stroke-width="0.2"/>
    </g>
</svg>