<svg id="bottom" xmlns="http://www.w3.org/2000/svg" viewBox="0 0 670.34 266.09">
    <title>starsky_bottom2</title>
    <g opacity="0.55">
        <path d="M231.65,109.78a.5.5,0,0,0,0-1,.5.5,0,0,0,0,1Z" transform="translate(-16.55 -21.5)" fill="#060C21"/>
        <path d="M379.89,154.23a.5.5,0,0,0,0-1,.5.5,0,0,0,0,1Z" transform="translate(-16.55 -21.5)" fill="#060C21"/>
        <path d="M579,167.62a.5.5,0,0,0,0-1,.5.5,0,0,0,0,1Z" transform="translate(-16.55 -21.5)" fill="#060C21"/>
        <path d="M430.49,130a.5.5,0,0,0,0-1,.5.5,0,0,0,0,1Z" transform="translate(-16.55 -21.5)" fill="#060C21"/>
        <path d="M217.32,70.67a.5.5,0,0,0,0-1,.5.5,0,0,0,0,1Z" transform="translate(-16.55 -21.5)" fill="#060C21"/>
        <path d="M664.14,215.34a.5.5,0,0,0,0-1,.5.5,0,0,0,0,1Z" transform="translate(-16.55 -21.5)" fill="#060C21"/>
        <path d="M51.37,272.81a.5.5,0,0,0,0-1,.5.5,0,0,0,0,1Z" transform="translate(-16.55 -21.5)" fill="#060C21"/>
        <path d="M237.84,225.79a.5.5,0,0,0,0-1,.5.5,0,0,0,0,1Z" transform="translate(-16.55 -21.5)" fill="#060C21"/>
        <path d="M352,22.5a.5.5,0,0,0,0-1,.5.5,0,0,0,0,1Z" transform="translate(-16.55 -21.5)" fill="#060C21"/>
        <path d="M558.11,194.82a.5.5,0,0,0,0-1,.5.5,0,0,0,0,1Z" transform="translate(-16.55 -21.5)" fill="#060C21"/>
        <path d="M17,147.41a.5.5,0,0,0,0-1,.5.5,0,0,0,0,1Z" transform="translate(-16.55 -21.5)" fill="#060C21"/>
        <path d="M102.23,40.43a.5.5,0,0,0,0-1,.5.5,0,0,0,0,1Z" transform="translate(-16.55 -21.5)" fill="#060C21"/>
        <path d="M337.2,209.29a.5.5,0,0,0,0-1,.5.5,0,0,0,0,1Z" transform="translate(-16.55 -21.5)" fill="#060C21"/>
        <path d="M563.07,110a.75.75,0,0,0,0-1.5.75.75,0,0,0,0,1.5Z" transform="translate(-16.55 -21.5)" fill="#060C21"/>
        <path d="M389.06,246.5a.5.5,0,0,0,0-1,.5.5,0,0,0,0,1Z" transform="translate(-16.55 -21.5)" fill="#060C21"/>
        <path d="M398.51,102.61a.5.5,0,0,0,0-1,.5.5,0,0,0,0,1Z" transform="translate(-16.55 -21.5)" fill="#060C21"/>
        <path d="M409,211a.5.5,0,0,0,0-1,.5.5,0,0,0,0,1Z" transform="translate(-16.55 -21.5)" fill="#060C21"/>
        <path d="M300.52,136.68a.5.5,0,0,0,0-1,.5.5,0,0,0,0,1Z" transform="translate(-16.55 -21.5)" fill="#060C21"/>
        <path d="M228.15,182.93a.75.75,0,0,0,0-1.5.75.75,0,0,0,0,1.5Z" transform="translate(-16.55 -21.5)"
              fill="#060C21"/>
        <path d="M346.9,58.1a.5.5,0,0,0,0-1,.5.5,0,0,0,0,1Z" transform="translate(-16.55 -21.5)" fill="#060C21"/>
        <path d="M513.56,139a.5.5,0,0,0,0-1,.5.5,0,0,0,0,1Z" transform="translate(-16.55 -21.5)" fill="#060C21"/>
        <path d="M638.29,143.58a.75.75,0,0,0,0-1.5.75.75,0,0,0,0,1.5Z" transform="translate(-16.55 -21.5)"
              fill="#060C21"/>
        <path d="M599.39,228.55a.5.5,0,0,0,0-1,.5.5,0,0,0,0,1Z" transform="translate(-16.55 -21.5)" fill="#060C21"/>
        <path d="M686.41,85a.5.5,0,0,0,0-1,.5.5,0,0,0,0,1Z" transform="translate(-16.55 -21.5)" fill="#060C21"/>
        <path d="M581.48,287.6a.5.5,0,0,0,0-1,.5.5,0,0,0,0,1Z" transform="translate(-16.55 -21.5)" fill="#060C21"/>
        <path d="M476.18,219.37a.5.5,0,0,0,0-1,.5.5,0,0,0,0,1Z" transform="translate(-16.55 -21.5)" fill="#060C21"/>
        <path d="M328.56,55.42a.75.75,0,0,0,0-1.5.75.75,0,0,0,0,1.5Z" transform="translate(-16.55 -21.5)"
              fill="#060C21"/>
        <path d="M147.74,166.65a.75.75,0,0,0,0-1.5.75.75,0,0,0,0,1.5Z" transform="translate(-16.55 -21.5)"
              fill="#060C21"/>
        <path d="M125.16,102.36a.5.5,0,0,0,0-1,.5.5,0,0,0,0,1Z" transform="translate(-16.55 -21.5)" fill="#060C21"/>
    </g>
</svg>