<svg id="middle" xmlns="http://www.w3.org/2000/svg" viewBox="0 0 750.11 254.19"><title>starsky_middle</title><g opacity="0.49"><polyline points="0.08 45.57 46.52 40.68 70.69 33.13 98.62 24.81 133.75 21.14 164.36 13.99 204.6 0.1 250.59 5.95 280.29 0.1 300.6 8.9" fill="none" stroke="#363644" stroke-miterlimit="10" stroke-width="0.2"/><polyline points="0.08 76.31 37.45 65.55 57.04 56.45 79.66 46.22 99.07 43.21 132.5 37.69 144.36 34.21 155.35 30.43 201.73 22.16 228.57 21.46 270.37 19.54 277.6 16.57 301.06 11.18 328.41 14.56 354.98 7.67 359.03 8.3 381.28 9.2 405.13 9.71 413.51 7.01 421.42 6.23 434.13 14.28 450.43 18.84" fill="none" stroke="#363644" stroke-miterlimit="10" stroke-width="0.2"/><polyline points="0.08 107.06 28.37 90.42 43.38 79.77 60.69 67.63 89.08 62.7 137.89 53.56 154.96 47.28 170.87 41.15 239.09 30.33 278.6 33.81 340.17 37.59 350.61 33.03 384.08 20.55 423.92 25.42 461.58 9.66 467.47 10.66 499.88 14.83 534.67 18.39 546.73 13.91 558.27 10.51 576.13 23.33 600.25 28.77" fill="none" stroke="#363644" stroke-miterlimit="10" stroke-width="0.2"/><polyline points="0.08 137.8 41.73 89.04 79.09 82.19 143.28 69.42 186.4 51.86 276.46 38.5 328.64 46.17 409.97 55.63 467.11 29.92 519.43 36.28 568.18 11.66 618.49 20.45 664.22 27.07 695.13 14.79 718.12 32.38 750.08 38.71" fill="none" stroke="#363644" stroke-miterlimit="10" stroke-width="0.2"/><polyline points="0.08 169.1 49 131.11 65.04 109.09 94.87 102.15 146.18 89.52 180.97 74.89 280.67 58.03 332.2 63.69 353.27 65.57 412.4 71.44 470.16 55.56 521.21 55.33 539.2 47.65 570.45 40.28 577.35 41.73 610.42 42 619.46 42.51 645.24 43.44 664.32 46.76 690.29 41.93 695.13 41.3 718.9 56.75 734.99 61.14 750.08 63.82" fill="none" stroke="#363644" stroke-miterlimit="10" stroke-width="0.2"/><polyline points="0.08 200.39 68.84 158.46 88.36 129.14 110.65 122.1 149.08 109.61 175.54 97.92 284.88 77.56 335.76 81.21 356.54 82.49 414.84 87.26 473.21 81.2 522.99 74.38 541.17 68 572.71 68.89 579.45 70.57 611.55 65.15 620.43 64.56 645.76 62.63 664.43 66.45 690.4 67.12 695.13 67.82 719.68 81.11 735.18 86.59 750.08 88.93" fill="none" stroke="#363644" stroke-miterlimit="10" stroke-width="0.2"/><polyline points="0.08 231.69 88.68 185.82 111.67 149.19 170.11 120.94 289.09 97.09 359.81 99.41 476.26 106.84 543.15 88.35 581.55 99.41 612.68 88.3 646.27 81.82 690.51 92.3 735.37 112.04 750.08 114.03" fill="none" stroke="#363644" stroke-miterlimit="10" stroke-width="0.2"/><polyline points="41.8 239.16 116.41 199.9 138.5 171.7 199.3 151.07 209.25 149.47 317.75 123.31 383.39 123.23 423.03 129.07 479.48 134.76 492.22 133.7 554.33 113.14 571.83 114.42 590.1 120.41 619.32 116.63 626.14 116.5 650.81 115.13 655.72 116.35 692.77 120.64 702.76 123.14 736.19 131.7 750.08 132.42" fill="none" stroke="#363644" stroke-miterlimit="10" stroke-width="0.2"/><polyline points="83.52 246.63 144.15 213.97 165.32 194.22 228.49 181.19 238.54 179.97 346.42 149.52 406.98 147.05 443.63 156.01 496.56 163.57 508.18 160.57 565.51 137.92 581.69 135.06 598.65 141.41 625.97 144.95 632.25 146.12 655.35 148.44 659.97 149.65 695.04 148.98 704.7 149.44 737.02 151.37 750.08 150.8" fill="none" stroke="#363644" stroke-miterlimit="10" stroke-width="0.2"/><polyline points="125.24 254.1 192.15 216.74 267.83 210.47 375.08 175.74 430.57 170.87 464.24 182.96 513.64 192.37 591.55 155.71 638.37 175.74 664.22 182.96 706.63 175.74 750.08 169.19" fill="none" stroke="#363644" stroke-miterlimit="10" stroke-width="0.2"/><polyline points="213.2 254.1 269.53 224.79 320.25 217.81 331.73 217.05 388.9 202.32 421.26 196.02 469.7 192.58 490.27 198.06 499.46 200.35 542.67 205.68 572.71 194.42 612.26 180.54 626.27 185.03 653.3 196.76 664.15 200.22 675.79 202.69 706.7 198.68 712.77 198.43 750.08 197.49" fill="none" stroke="#363644" stroke-miterlimit="10" stroke-width="0.2"/><polyline points="301.17 254.1 346.91 232.84 386.5 224 395.63 223.62 441.75 216.26 467.45 216.31 508.83 214.29 526.71 216.9 534.68 217.74 571.7 218.99 598.11 212.31 632.96 205.37 645.25 207.62 668.23 217.79 677.33 221.19 687.37 222.42 713.85 220.41 718.91 221.12 750.08 225.79" fill="none" stroke="#363644" stroke-miterlimit="10" stroke-width="0.2"/><polyline points="389.13 254.1 452.74 230.2 494.59 230.2 513.64 236.59 563.15 235.75 623.52 230.2 664.22 230.2 690.51 242.15 721 242.15 750.08 254.1" fill="none" stroke="#363644" stroke-miterlimit="10" stroke-width="0.2"/></g></svg>