<svg id="top" xmlns="http://www.w3.org/2000/svg" viewBox="0 0 740.16 465.63"><title>starsky_top</title><g opacity="0.75"><path d="M181.18,182.82a.5.5,0,0,0,0-1,.5.5,0,0,0,0,1Z" transform="translate(-8.87 -7.69)" fill="#a0a0b9"/><path d="M332.94,152.47a.5.5,0,0,0,0-1,.5.5,0,0,0,0,1Z" transform="translate(-8.87 -7.69)" fill="#a0a0b9"/><path d="M515,70.81a.5.5,0,0,0,0-1,.5.5,0,0,0,0,1Z" transform="translate(-8.87 -7.69)" fill="#a0a0b9"/><path d="M477.47,316.51a.5.5,0,0,0,0-1,.5.5,0,0,0,0,1Z" transform="translate(-8.87 -7.69)" fill="#a0a0b9"/><path d="M261.4,364.2a.5.5,0,0,0,0-1,.5.5,0,0,0,0,1Z" transform="translate(-8.87 -7.69)" fill="#a0a0b9"/><path d="M70.62,61.41a.5.5,0,0,0,0-1,.5.5,0,0,0,0,1Z" transform="translate(-8.87 -7.69)" fill="#a0a0b9"/><path d="M612.61,73a.5.5,0,0,0,0-1,.5.5,0,0,0,0,1Z" transform="translate(-8.87 -7.69)" fill="#a0a0b9"/><path d="M623.45,443.69a.5.5,0,0,0,0-1,.5.5,0,0,0,0,1Z" transform="translate(-8.87 -7.69)" fill="#a0a0b9"/><path d="M706.55,473.32a.5.5,0,0,0,0-1,.5.5,0,0,0,0,1Z" transform="translate(-8.87 -7.69)" fill="#a0a0b9"/><path d="M98.54,411.39a.5.5,0,0,0,0-1,.5.5,0,0,0,0,1Z" transform="translate(-8.87 -7.69)" fill="#a0a0b9"/><path d="M241.11,282.34a.5.5,0,0,0,0-1,.5.5,0,0,0,0,1Z" transform="translate(-8.87 -7.69)" fill="#a0a0b9"/><path d="M246.51,49.23a.5.5,0,0,0,0-1,.5.5,0,0,0,0,1Z" transform="translate(-8.87 -7.69)" fill="#a0a0b9"/><path d="M509.35,104.64a.5.5,0,0,0,0-1,.5.5,0,0,0,0,1Z" transform="translate(-8.87 -7.69)" fill="#a0a0b9"/><path d="M9.35,316.8a.5.5,0,0,0,0-1,.5.5,0,0,0,0,1Z" transform="translate(-8.87 -7.69)" fill="#a0a0b9"/><path d="M34.35,182.34a.5.5,0,0,0,0-1,.5.5,0,0,0,0,1Z" transform="translate(-8.87 -7.69)" fill="#a0a0b9"/><path d="M748.54,89.09a.5.5,0,0,0,0-1,.5.5,0,0,0,0,1Z" transform="translate(-8.87 -7.69)" fill="#a0a0b9"/><path d="M389.06,110a.75.75,0,0,0,0-1.5.75.75,0,0,0,0,1.5Z" transform="translate(-8.87 -7.69)" fill="#a0a0b9"/><path d="M432.32,430.31a.5.5,0,0,0,0-1,.5.5,0,0,0,0,1Z" transform="translate(-8.87 -7.69)" fill="#a0a0b9"/><path d="M585,236.64a.75.75,0,0,0,0-1.5.75.75,0,0,0,0,1.5Z" transform="translate(-8.87 -7.69)" fill="#a0a0b9"/><path d="M332.94,215.34a.5.5,0,0,0,0-1,.5.5,0,0,0,0,1Z" transform="translate(-8.87 -7.69)" fill="#a0a0b9"/><path d="M436.38,307.34a.5.5,0,0,0,0-1,.5.5,0,0,0,0,1Z" transform="translate(-8.87 -7.69)" fill="#a0a0b9"/><path d="M494.52,250.5a.5.5,0,0,0,0-1,.5.5,0,0,0,0,1Z" transform="translate(-8.87 -7.69)" fill="#a0a0b9"/><path d="M254.62,174.23a.5.5,0,0,0,0-1,.5.5,0,0,0,0,1Z" transform="translate(-8.87 -7.69)" fill="#a0a0b9"/><path d="M323.54,458.26a.75.75,0,0,0,0-1.5.75.75,0,0,0,0,1.5Z" transform="translate(-8.87 -7.69)" fill="#a0a0b9"/><path d="M289,322a.5.5,0,0,0,0-1,.5.5,0,0,0,0,1Z" transform="translate(-8.87 -7.69)" fill="#a0a0b9"/><path d="M443.81,76.26a.5.5,0,0,0,0-1,.5.5,0,0,0,0,1Z" transform="translate(-8.87 -7.69)" fill="#a0a0b9"/><path d="M556,21.78a.75.75,0,0,0,0-1.5.75.75,0,0,0,0,1.5Z" transform="translate(-8.87 -7.69)" fill="#a0a0b9"/><path d="M414.76,8.69a.5.5,0,0,0,0-1,.5.5,0,0,0,0,1Z" transform="translate(-8.87 -7.69)" fill="#a0a0b9"/><path d="M690.43,31a.5.5,0,0,0,0-1,.5.5,0,0,0,0,1Z" transform="translate(-8.87 -7.69)" fill="#a0a0b9"/><path d="M51.24,112.74a.5.5,0,0,0,0-1,.5.5,0,0,0,0,1Z" transform="translate(-8.87 -7.69)" fill="#a0a0b9"/><path d="M58,20.18a.5.5,0,0,0,0-1,.5.5,0,0,0,0,1Z" transform="translate(-8.87 -7.69)" fill="#a0a0b9"/><path d="M672.86,324.23a.5.5,0,0,0,0-1,.5.5,0,0,0,0,1Z" transform="translate(-8.87 -7.69)" fill="#a0a0b9"/><path d="M682.32,156.66a.5.5,0,0,0,0-1,.5.5,0,0,0,0,1Z" transform="translate(-8.87 -7.69)" fill="#a0a0b9"/><path d="M573.54,175.58a.5.5,0,0,0,0-1,.5.5,0,0,0,0,1Z" transform="translate(-8.87 -7.69)" fill="#a0a0b9"/><path d="M448.54,164.77a.5.5,0,0,0,0-1,.5.5,0,0,0,0,1Z" transform="translate(-8.87 -7.69)" fill="#a0a0b9"/><path d="M241.11,89.34a.75.75,0,0,0,0-1.5.75.75,0,0,0,0,1.5Z" transform="translate(-8.87 -7.69)" fill="#a0a0b9"/><path d="M151.92,46.78a.75.75,0,0,0,0-1.5.75.75,0,0,0,0,1.5Z" transform="translate(-8.87 -7.69)" fill="#a0a0b9"/><path d="M244.49,19.5a.5.5,0,0,0,0-1,.5.5,0,0,0,0,1Z" transform="translate(-8.87 -7.69)" fill="#a0a0b9"/><path d="M133.68,272.45a.75.75,0,0,0,0-1.5.75.75,0,0,0,0,1.5Z" transform="translate(-8.87 -7.69)" fill="#a0a0b9"/><path d="M83.68,226.26a.5.5,0,0,0,0-1,.5.5,0,0,0,0,1Z" transform="translate(-8.87 -7.69)" fill="#a0a0b9"/></g></svg>