<svg xmlns="http://www.w3.org/2000/svg" xmlns:xlink="http://www.w3.org/1999/xlink" viewBox="0 0 750 500"><defs><linearGradient id="linear-gradient" x1="173" y1="-99.88" x2="577" y2="599.88" gradientUnits="userSpaceOnUse"><stop offset="0" stop-color="#16141a"/><stop offset="1" stop-color="#100e1c"/></linearGradient></defs><title>starsky</title><g id="Layer_1" data-name="Layer 1"><rect width="750" height="500" fill="url(#linear-gradient)"/></g><g id="Layer_2" data-name="Layer 2"><path d="M181.18,182.82a.5.5,0,0,0,0-1,.5.5,0,0,0,0,1Z" fill="#a0a0b9"/><path d="M332.94,152.47a.5.5,0,0,0,0-1,.5.5,0,0,0,0,1Z" fill="#a0a0b9"/><path d="M515,70.81a.5.5,0,0,0,0-1,.5.5,0,0,0,0,1Z" fill="#a0a0b9"/><path d="M477.47,316.51a.5.5,0,0,0,0-1,.5.5,0,0,0,0,1Z" fill="#a0a0b9"/><path d="M261.4,364.2a.5.5,0,0,0,0-1,.5.5,0,0,0,0,1Z" fill="#a0a0b9"/><path d="M70.62,61.41a.5.5,0,0,0,0-1,.5.5,0,0,0,0,1Z" fill="#a0a0b9"/><path d="M612.61,73a.5.5,0,0,0,0-1,.5.5,0,0,0,0,1Z" fill="#a0a0b9"/><path d="M623.45,443.69a.5.5,0,0,0,0-1,.5.5,0,0,0,0,1Z" fill="#a0a0b9"/><path d="M706.55,473.32a.5.5,0,0,0,0-1,.5.5,0,0,0,0,1Z" fill="#a0a0b9"/><path d="M98.54,411.39a.5.5,0,0,0,0-1,.5.5,0,0,0,0,1Z" fill="#a0a0b9"/><path d="M241.11,282.34a.5.5,0,0,0,0-1,.5.5,0,0,0,0,1Z" fill="#a0a0b9"/><path d="M246.51,49.23a.5.5,0,0,0,0-1,.5.5,0,0,0,0,1Z" fill="#a0a0b9"/><path d="M509.35,104.64a.5.5,0,0,0,0-1,.5.5,0,0,0,0,1Z" fill="#a0a0b9"/><path d="M9.35,316.8a.5.5,0,0,0,0-1,.5.5,0,0,0,0,1Z" fill="#a0a0b9"/><path d="M34.35,182.34a.5.5,0,0,0,0-1,.5.5,0,0,0,0,1Z" fill="#a0a0b9"/><path d="M748.54,89.09a.5.5,0,0,0,0-1,.5.5,0,0,0,0,1Z" fill="#a0a0b9"/><path d="M389.06,110a.75.75,0,0,0,0-1.5.75.75,0,0,0,0,1.5Z" fill="#a0a0b9"/><path d="M432.32,430.31a.5.5,0,0,0,0-1,.5.5,0,0,0,0,1Z" fill="#a0a0b9"/><path d="M585,236.64a.75.75,0,0,0,0-1.5.75.75,0,0,0,0,1.5Z" fill="#a0a0b9"/><path d="M332.94,215.34a.5.5,0,0,0,0-1,.5.5,0,0,0,0,1Z" fill="#a0a0b9"/><path d="M436.38,307.34a.5.5,0,0,0,0-1,.5.5,0,0,0,0,1Z" fill="#a0a0b9"/><path d="M494.52,250.5a.5.5,0,0,0,0-1,.5.5,0,0,0,0,1Z" fill="#a0a0b9"/><path d="M254.62,174.23a.5.5,0,0,0,0-1,.5.5,0,0,0,0,1Z" fill="#a0a0b9"/><path d="M323.54,458.26a.75.75,0,0,0,0-1.5.75.75,0,0,0,0,1.5Z" fill="#a0a0b9"/><path d="M289,322a.5.5,0,0,0,0-1,.5.5,0,0,0,0,1Z" fill="#a0a0b9"/><path d="M443.81,76.26a.5.5,0,0,0,0-1,.5.5,0,0,0,0,1Z" fill="#a0a0b9"/><path d="M556,21.78a.75.75,0,0,0,0-1.5.75.75,0,0,0,0,1.5Z" fill="#a0a0b9"/><path d="M414.76,8.69a.5.5,0,0,0,0-1,.5.5,0,0,0,0,1Z" fill="#a0a0b9"/><path d="M690.43,31a.5.5,0,0,0,0-1,.5.5,0,0,0,0,1Z" fill="#a0a0b9"/><path d="M51.24,112.74a.5.5,0,0,0,0-1,.5.5,0,0,0,0,1Z" fill="#a0a0b9"/><path d="M58,20.18a.5.5,0,0,0,0-1,.5.5,0,0,0,0,1Z" fill="#a0a0b9"/><path d="M672.86,324.23a.5.5,0,0,0,0-1,.5.5,0,0,0,0,1Z" fill="#a0a0b9"/><path d="M682.32,156.66a.5.5,0,0,0,0-1,.5.5,0,0,0,0,1Z" fill="#a0a0b9"/><path d="M573.54,175.58a.5.5,0,0,0,0-1,.5.5,0,0,0,0,1Z" fill="#a0a0b9"/><path d="M448.54,164.77a.5.5,0,0,0,0-1,.5.5,0,0,0,0,1Z" fill="#a0a0b9"/><path d="M241.11,89.34a.75.75,0,0,0,0-1.5.75.75,0,0,0,0,1.5Z" fill="#a0a0b9"/><path d="M151.92,46.78a.75.75,0,0,0,0-1.5.75.75,0,0,0,0,1.5Z" fill="#a0a0b9"/><path d="M244.49,19.5a.5.5,0,0,0,0-1,.5.5,0,0,0,0,1Z" fill="#a0a0b9"/><path d="M133.68,272.45a.75.75,0,0,0,0-1.5.75.75,0,0,0,0,1.5Z" fill="#a0a0b9"/><path d="M83.68,226.26a.5.5,0,0,0,0-1,.5.5,0,0,0,0,1Z" fill="#a0a0b9"/><path d="M231.65,109.78a.5.5,0,0,0,0-1,.5.5,0,0,0,0,1Z" fill="#a0a0b9"/><path d="M379.89,154.23a.5.5,0,0,0,0-1,.5.5,0,0,0,0,1Z" fill="#a0a0b9"/><path d="M579,167.62a.5.5,0,0,0,0-1,.5.5,0,0,0,0,1Z" fill="#a0a0b9"/><path d="M430.49,366.92a.5.5,0,0,0,0-1,.5.5,0,0,0,0,1Z" fill="#a0a0b9"/><path d="M217.32,307.6a.5.5,0,0,0,0-1,.5.5,0,0,0,0,1Z" fill="#a0a0b9"/><path d="M664.14,215.34a.5.5,0,0,0,0-1,.5.5,0,0,0,0,1Z" fill="#a0a0b9"/><path d="M51.37,272.81a.5.5,0,0,0,0-1,.5.5,0,0,0,0,1Z" fill="#a0a0b9"/><path d="M237.84,225.79a.5.5,0,0,0,0-1,.5.5,0,0,0,0,1Z" fill="#a0a0b9"/><path d="M352,22.5a.5.5,0,0,0,0-1,.5.5,0,0,0,0,1Z" fill="#a0a0b9"/><path d="M558.11,194.82a.5.5,0,0,0,0-1,.5.5,0,0,0,0,1Z" fill="#a0a0b9"/><path d="M17,147.41a.5.5,0,0,0,0-1,.5.5,0,0,0,0,1Z" fill="#a0a0b9"/><path d="M102.23,40.43a.5.5,0,0,0,0-1,.5.5,0,0,0,0,1Z" fill="#a0a0b9"/><path d="M443.35,58.29a.75.75,0,0,0,0-1.5.75.75,0,0,0,0,1.5Z" fill="#a0a0b9"/><path d="M337.2,446.21a.5.5,0,0,0,0-1,.5.5,0,0,0,0,1Z" fill="#a0a0b9"/><path d="M563.07,346.93a.75.75,0,0,0,0-1.5.75.75,0,0,0,0,1.5Z" fill="#a0a0b9"/><path d="M389.06,246.5a.5.5,0,0,0,0-1,.5.5,0,0,0,0,1Z" fill="#a0a0b9"/><path d="M398.51,339.54a.5.5,0,0,0,0-1,.5.5,0,0,0,0,1Z" fill="#a0a0b9"/><path d="M409,211a.5.5,0,0,0,0-1,.5.5,0,0,0,0,1Z" fill="#a0a0b9"/><path d="M300.52,136.68a.5.5,0,0,0,0-1,.5.5,0,0,0,0,1Z" fill="#a0a0b9"/><path d="M228.15,419.85a.75.75,0,0,0,0-1.5.75.75,0,0,0,0,1.5Z" fill="#a0a0b9"/><path d="M346.9,295a.5.5,0,0,0,0-1,.5.5,0,0,0,0,1Z" fill="#a0a0b9"/><path d="M513.56,139a.5.5,0,0,0,0-1,.5.5,0,0,0,0,1Z" fill="#a0a0b9"/><path d="M638.29,143.58a.75.75,0,0,0,0-1.5.75.75,0,0,0,0,1.5Z" fill="#a0a0b9"/><path d="M519.63,65.69a.5.5,0,0,0,0-1,.5.5,0,0,0,0,1Z" fill="#a0a0b9"/><path d="M599.39,465.47a.5.5,0,0,0,0-1,.5.5,0,0,0,0,1Z" fill="#a0a0b9"/><path d="M686.41,322a.5.5,0,0,0,0-1,.5.5,0,0,0,0,1Z" fill="#a0a0b9"/><path d="M581.48,287.6a.5.5,0,0,0,0-1,.5.5,0,0,0,0,1Z" fill="#a0a0b9"/><path d="M476.18,219.37a.5.5,0,0,0,0-1,.5.5,0,0,0,0,1Z" fill="#a0a0b9"/><path d="M328.56,55.42a.75.75,0,0,0,0-1.5.75.75,0,0,0,0,1.5Z" fill="#a0a0b9"/><path d="M147.74,166.65a.75.75,0,0,0,0-1.5.75.75,0,0,0,0,1.5Z" fill="#a0a0b9"/><path d="M125.16,102.36a.5.5,0,0,0,0-1,.5.5,0,0,0,0,1Z" fill="#a0a0b9"/></g></svg>