<?xml version="1.0" encoding="utf-8"?>
<!-- Generator: Adobe Illustrator 21.0.2, SVG Export Plug-In . SVG Version: 6.00 Build 0)  -->
<svg version="1.1" id="Layer_1" xmlns="http://www.w3.org/2000/svg" xmlns:xlink="http://www.w3.org/1999/xlink" x="0px" y="0px"
	 viewBox="0 0 2834.6 2834.6" style="enable-background:new 0 0 2834.6 2834.6;" xml:space="preserve">
<style type="text/css">
	.st0{fill:#FFFFFF;}
</style>
<g>
	<path class="st0" d="M1171,1362.6c-17.1-34.5-28.9-71.6-44.4-110.5c-36.5,4.4-71.1,17.9-98,45.9c-48.4,50.4-42.6,102.6,14.7,142
		c11.4,7.8,23.4,15.2,36,20.8c35.4,15.8,71.1,31,107,45.6c59.2,24,110.2,58.3,145.7,112.6c2.7,4.2,5.8,8.2,7.7,10.8
		c9.1-69.4,18.2-138.8,27-205.8c-13.2,5.3-27.4,13.4-42.5,16.5C1254.9,1454.4,1204.1,1429.4,1171,1362.6z"/>
	<path class="st0" d="M1807.1,1376.3c-76.6-16.4-142.2,24.5-181.5,73c-3.6,4.5-4.7,11.4-5.9,17.3c-16.3,80.5-24.6,161.7-22.8,234.5
		c2.7,56.7,6.7,103.7,27.4,147.3c17.6,36.9,40.7,50.4,81.4,47.7c46.7-3.1,83.7-26,111.5-61.6c79.3-101.8,105.2-218.9,88.2-345
		C1897.8,1433.2,1867.6,1389.2,1807.1,1376.3z"/>
	<path class="st0" d="M1417.1,384.3c-578.9,0-1048.2,469.3-1048.2,1048.2s469.3,1048.2,1048.2,1048.2s1048.2-469.3,1048.2-1048.2
		S1996,384.3,1417.1,384.3z M2042.5,1831.6c-132,115.7-287.4,152.7-457.8,116.8c-108.8-22.9-181.7-93.4-224.3-195.6
		c-2.6-6.3-5.2-12.5-9.1-21.8c-17.7,76.8-54.7,137-120.7,176.7c-43.7,26.3-92.6,36.7-142.2,43.3c-83.6,11-167.3,14.1-250.6-2.1
		c-46.9-9.1-90.7-26.8-126.4-59.6c-14.1-12.9-26.9-28.5-36.1-45.1c-22.4-40.4-12.3-84.4,25.9-110.3c60.1-40.6,144-53.5,202.5,35.2
		c27.2,41.2,41.3,87.4,51,135c72.1,14.6,153-37.8,166.6-107.2c7.4-37.8-3-70.9-34.2-91.8c-30.8-20.6-65.4-35.7-99.2-51.4
		c-33.9-15.7-69-28.8-103.4-43.4c-148.4-63.2-135.5-275.9-14.6-345.8c53.4-30.9,110.3-48.1,170.8-55c80.5-9.2,161.2-9.4,239.1,15.2
		c30.9,9.7,61.2,26.8,86.6,46.9c17.6,13.9,26.5,38.9,39,58.6C1560.7,1050,1812.9,919.8,2127,883c1.1,25.2,2,46.4,2.9,66.4
		c-234.1,45.2-398.8,170.2-474.9,400.5c44.7-36.5,95.4-59.4,151.7-69.7c64.5-11.8,129.1-10.3,191.7,8.4
		c104.8,31.3,184.6,148.7,180.4,260.7C2174.6,1663.3,2126.8,1757.8,2042.5,1831.6z"/>
</g>
</svg>
